<?xml version="1.0" standalone="no"?>
<svg xmlns="http://www.w3.org/2000/svg" width="48" height="48"><rect width="48" height="48" opacity="0"></rect><g><path d="M36.82 26.5L24.72 38.59Q24 39.31 24 40.37Q24 41.42 24.72 42.14Q25.49 42.86 26.54 42.86Q27.6 42.86 28.32 42.14L43.54 26.93Q44.11 26.35 44.42 25.58Q44.74 24.82 44.74 24Q44.74 23.18 44.45 22.44Q44.16 21.7 43.54 21.12L28.27 5.81Q27.46 5.09 26.42 5.09Q25.39 5.09 24.72 5.81Q24 6.53 24 7.58Q24 8.64 24.72 9.36L36.67 21.46L5.76 21.46Q4.7 21.46 3.98 22.2Q3.26 22.94 3.26 24Q3.26 25.06 3.98 25.78Q4.7 26.5 5.76 26.5Z" fill="rgba(0,0,0,0.9019607843137255)"></path></g></svg>