<?xml version="1.0" standalone="no"?>
<svg xmlns="http://www.w3.org/2000/svg" width="48" height="48"><rect width="48" height="48" opacity="0"></rect><g><path d="M19.01 37.87Q20.06 37.87 21.14 37.46Q22.22 37.06 22.99 36.24L44.11 15.22Q44.98 14.35 44.98 13.13Q44.98 11.9 44.11 11.04Q43.25 10.13 42 10.1Q40.75 10.08 39.84 10.99L19.44 31.3Q19.25 31.49 19.01 31.46Q18.77 31.44 18.58 31.3L8.11 20.98Q7.2 20.06 6 20.06Q4.8 20.06 3.94 20.93Q2.98 21.79 3 23.02Q3.02 24.24 3.94 25.15L15.07 36.19Q15.89 37.06 16.92 37.46Q17.95 37.87 19.01 37.87Z" fill="rgba(0,0,0,0.9019607843137255)"></path></g></svg>