<?xml version="1.0" standalone="no"?>
<svg xmlns="http://www.w3.org/2000/svg" width="48" height="48"><rect width="48" height="48" opacity="0"></rect><g><path d="M26.98 21.02L26.98 6Q26.98 4.8 26.09 3.91Q25.2 3.02 24 3.02Q22.8 3.02 21.91 3.91Q21.02 4.8 21.02 6L21.02 21.02L6 21.02Q4.8 21.02 3.91 21.91Q3.02 22.8 3.02 24Q3.02 25.2 3.91 26.09Q4.8 26.98 6 26.98L21.02 26.98L21.02 42Q21.02 43.2 21.91 44.09Q22.8 44.98 24 44.98Q25.2 44.98 26.09 44.09Q26.98 43.2 26.98 42L26.98 26.98L42 26.98Q43.2 26.98 44.09 26.09Q44.98 25.2 44.98 24Q44.98 22.8 44.09 21.91Q43.2 21.02 42 21.02Z" fill="rgba(0,0,0,0.9019607843137255)"></path></g></svg>