<?xml version="1.0" standalone="no"?>
<svg xmlns="http://www.w3.org/2000/svg" width="48" height="48"><rect width="48" height="48" opacity="0"></rect><g><path d="M24.05 19.3Q25.44 19.3 26.47 19.9Q27.5 20.5 28.1 21.55Q28.7 22.61 28.7 24.05Q28.7 25.44 28.13 26.5Q27.55 27.55 26.5 28.13Q25.44 28.7 24 28.7Q22.61 28.7 21.55 28.1Q20.5 27.5 19.9 26.45Q19.3 25.39 19.3 23.95Q19.3 22.56 19.92 21.5Q20.54 20.45 21.6 19.87Q22.66 19.3 24.05 19.3ZM24.1 13.97Q21.36 13.97 19.03 15.31Q16.7 16.66 15.34 18.96Q13.97 21.26 13.97 23.95Q13.97 26.69 15.31 29.02Q16.66 31.34 18.96 32.71Q21.26 34.08 24 34.08Q26.74 34.08 29.06 32.74Q31.39 31.39 32.74 29.09Q34.08 26.78 34.08 24.05Q34.08 21.31 32.74 19.01Q31.39 16.7 29.09 15.34Q26.78 13.97 24.1 13.97ZM27.12 46.61Q28.42 46.61 29.52 45.91Q30.62 45.22 31.15 44.02L32.54 40.61L32.83 40.46Q33.41 40.18 33.98 39.79L37.63 40.27Q38.98 40.42 40.15 39.82Q41.33 39.22 42 38.06L45.17 32.59Q45.84 31.44 45.77 30.14Q45.7 28.85 44.88 27.79L42.67 24.77L42.67 23.28L44.88 20.26Q45.7 19.2 45.77 17.88Q45.84 16.56 45.17 15.46L42 9.94Q41.42 8.83 40.22 8.23Q39.02 7.63 37.73 7.73L33.98 8.21Q33.41 7.82 32.69 7.44L31.25 3.94Q30.72 2.78 29.62 2.04Q28.51 1.3 27.22 1.3L20.88 1.3Q19.58 1.3 18.46 2.02Q17.33 2.74 16.8 3.94L15.36 7.44L15.02 7.68Q14.74 7.82 14.57 7.92Q14.4 8.02 14.11 8.16L10.37 7.73Q9.07 7.54 7.85 8.14Q6.62 8.74 6 9.89L2.83 15.41Q2.16 16.51 2.23 17.83Q2.3 19.15 3.12 20.21L5.38 23.28L5.38 24.62L3.12 27.7Q2.3 28.75 2.23 30.07Q2.16 31.39 2.83 32.5L5.95 37.97Q6.58 39.12 7.78 39.72Q8.98 40.32 10.27 40.18L13.97 39.74Q14.64 40.18 15.31 40.56L16.75 43.97Q17.28 45.17 18.36 45.89Q19.44 46.61 20.78 46.61L27.12 46.61ZM14.21 34.03L10.27 34.46L7.97 30.29L10.18 27.26Q10.9 26.26 10.9 25.15Q10.85 24.58 10.85 23.88Q10.85 23.18 10.9 22.7Q10.9 21.5 10.22 20.5L7.97 17.38L10.37 13.25L14.16 13.78Q14.83 13.82 15.46 13.66Q16.08 13.49 16.51 13.15Q17.42 12.53 18.43 12.1Q19.54 11.52 20.06 10.42L21.6 6.86L26.35 6.91L27.84 10.37Q28.32 11.47 29.47 12.1Q30.34 12.43 31.49 13.25Q32.64 14.02 33.84 13.82L37.58 13.39L39.89 17.57L37.78 20.45Q36.86 21.46 37.01 22.8Q37.06 23.33 37.06 24.02Q37.06 24.72 37.01 25.2Q36.91 26.45 37.73 27.5L39.89 30.48L37.49 34.61L33.89 34.13Q33.26 34.03 32.62 34.2Q31.97 34.37 31.49 34.75Q30.72 35.28 29.42 35.9Q28.94 36.14 28.49 36.6Q28.03 37.06 27.79 37.58L26.26 40.99L21.55 40.94L20.11 37.54Q19.54 36.38 18.48 35.86Q17.33 35.33 16.42 34.7Q15.6 34.08 14.5 34.08Z" fill="rgba(0,0,0,0.9019607843137255)"></path></g></svg>